<svg xmlns="http://www.w3.org/2000/svg" width="24.084" height="24" viewBox="0 0 24.084 24"><g transform="translate(0 -0.546)"><g transform="translate(0 0.546)"><path d="M23.515,14.2a.846.846,0,0,0-.708.154,9.03,9.03,0,0,1-2.739,1.6,8.578,8.578,0,0,1-3.109.554A9.037,9.037,0,0,1,7.91,7.464,9.486,9.486,0,0,1,8.4,4.479,8.264,8.264,0,0,1,9.88,1.832.786.786,0,0,0,9.757.724.846.846,0,0,0,9.049.57,12.42,12.42,0,0,0,2.524,4.941,12.184,12.184,0,1,0,24.038,15.19.73.73,0,0,0,23.515,14.2Zm-4.709,6.433a10.595,10.595,0,0,1-17.144-8.31A10.408,10.408,0,0,1,3.847,5.895,10.582,10.582,0,0,1,7.387,2.94a10.632,10.632,0,0,0-.431,1.046A10.242,10.242,0,0,0,6.371,7.5,10.614,10.614,0,0,0,16.99,18.114a10.3,10.3,0,0,0,3.663-.646c.4-.154.8-.308,1.17-.492A11.2,11.2,0,0,1,18.806,20.638Z" transform="translate(0 -0.546)"/></g></g></svg>