<svg xmlns="http://www.w3.org/2000/svg" width="24" height="24" viewBox="0 0 24 24"><g transform="translate(5.968 5.968)"><path d="M85.486,76.978A6.052,6.052,0,0,0,81.232,75.2a5.921,5.921,0,0,0-4.254,1.778,6.032,6.032,0,0,0,4.254,10.286,5.921,5.921,0,0,0,4.254-1.778,6.052,6.052,0,0,0,1.778-4.254A5.921,5.921,0,0,0,85.486,76.978Zm-1.143,7.365a4.446,4.446,0,1,1,1.27-3.111A4.391,4.391,0,0,1,84.343,84.343Z" transform="translate(-75.2 -75.2)"/></g><g transform="translate(19.905 11.175)"><path d="M254.07,140.8h-2.444a.825.825,0,0,0,0,1.651h2.444a.825.825,0,0,0,0-1.651Z" transform="translate(-250.8 -140.8)"/></g><g transform="translate(11.175 19.905)"><path d="M141.625,250.8a.84.84,0,0,0-.825.825v2.444a.825.825,0,1,0,1.651,0v-2.444A.84.84,0,0,0,141.625,250.8Z" transform="translate(-140.8 -250.8)"/></g><g transform="translate(17.349 17.349)"><path d="M221.727,220.584l-1.746-1.746a.808.808,0,1,0-1.143,1.143l1.746,1.746a.808.808,0,1,0,1.143-1.143Z" transform="translate(-218.6 -218.6)"/></g><g transform="translate(11.175)"><path d="M141.625,0a.84.84,0,0,0-.825.825V3.27a.825.825,0,1,0,1.651,0V.825A.84.84,0,0,0,141.625,0Z" transform="translate(-140.8)"/></g><g transform="translate(17.381 3.286)"><path d="M222.127,41.638a.8.8,0,0,0-1.143,0l-1.746,1.746a.808.808,0,0,0,1.143,1.143l1.746-1.746A.8.8,0,0,0,222.127,41.638Z" transform="translate(-219 -41.4)"/></g><g transform="translate(0 11.175)"><path d="M3.27,140.8H.825a.84.84,0,0,0-.825.825.82.82,0,0,0,.825.825H3.27a.825.825,0,1,0,0-1.651Z" transform="translate(0 -140.8)"/></g><g transform="translate(3.254 17.349)"><path d="M44.127,218.838a.8.8,0,0,0-1.143,0l-1.746,1.746a.808.808,0,1,0,1.143,1.143l1.746-1.746A.8.8,0,0,0,44.127,218.838Z" transform="translate(-41 -218.6)"/></g><g transform="translate(3.254 3.286)"><path d="M44.127,43.384l-1.746-1.746a.808.808,0,1,0-1.143,1.143l1.746,1.746a.808.808,0,1,0,1.143-1.143Z" transform="translate(-41 -41.4)"/></g></svg>