<svg xmlns="http://www.w3.org/2000/svg" width="33.451" height="24" viewBox="0 0 33.451 24"><g transform="translate(0 -58.303)"><g transform="translate(0 58.303)"><path d="M32.8,60.3H30.6v-.752a.648.648,0,0,0-.467-.648,18.264,18.264,0,0,0-4.675-.6,12.058,12.058,0,0,0-8.74,3.242c-2.594-2.684-6.153-3.242-8.74-3.242a18.264,18.264,0,0,0-4.675.6.648.648,0,0,0-.467.648v.746H.648A.648.648,0,0,0,0,60.942v20.71a.647.647,0,0,0,.966.564,22.861,22.861,0,0,1,15.6-1.3h.156a.649.649,0,0,0,.156,0c9.078-2.3,15.562,1.238,15.6,1.3a.648.648,0,0,0,.973-.558V60.949A.648.648,0,0,0,32.8,60.3ZM1.3,80.621V61.6h1.55V77.859a.648.648,0,0,0,.746.648,28.375,28.375,0,0,1,4.053-.324,16.819,16.819,0,0,1,5.537.836A23.837,23.837,0,0,0,1.3,80.621Zm6.348-3.728a28.529,28.529,0,0,0-3.527.227V60.061a17.883,17.883,0,0,1,3.845-.428c2.425,0,5.771.558,8.092,3.177l.019,16.152C14.725,78.08,12.093,76.893,7.645,76.893ZM17.371,62.81a10.683,10.683,0,0,1,8.092-3.177,17.962,17.962,0,0,1,3.845.428V77.12a28.522,28.522,0,0,0-3.508-.233c-4.422,0-7.061,1.187-8.429,2.068ZM32.148,80.621a23.842,23.842,0,0,0-11.911-1.6,16.859,16.859,0,0,1,5.563-.836,28.367,28.367,0,0,1,4.078.318.648.648,0,0,0,.746-.648V61.6h1.55Z" transform="translate(0 -58.303)"/></g></g></svg>