<svg xmlns="http://www.w3.org/2000/svg" width="23.906" height="24" viewBox="0 0 23.906 24"><g transform="translate(-1.163 0)"><g transform="translate(13.798 0)"><g transform="translate(0 0)"><path d="M272.576,4.629a2.733,2.733,0,0,0,1.145-2.08A3.37,3.37,0,0,0,272.6.179a.707.707,0,1,0-.94,1.057,2.045,2.045,0,0,1,.645,1.278,1.381,1.381,0,0,1-.619,1.013,2.733,2.733,0,0,0-1.145,2.08,3.37,3.37,0,0,0,1.119,2.369.708.708,0,0,0,.943-1.055,1.981,1.981,0,0,1-.648-1.286A1.385,1.385,0,0,1,272.576,4.629Z" transform="translate(-270.541 0)"/></g></g><g transform="translate(9.309 0)"><g transform="translate(0 0)"><path d="M176.871,4.629a2.733,2.733,0,0,0,1.145-2.08A3.37,3.37,0,0,0,176.9.179a.707.707,0,1,0-.94,1.057,2.045,2.045,0,0,1,.645,1.278,1.381,1.381,0,0,1-.619,1.013,2.733,2.733,0,0,0-1.145,2.08,3.37,3.37,0,0,0,1.119,2.369.708.708,0,0,0,.943-1.055,1.981,1.981,0,0,1-.648-1.286A1.385,1.385,0,0,1,176.871,4.629Z" transform="translate(-174.836 0)"/></g></g><g transform="translate(1.163 10.319)"><g transform="translate(0)"><path d="M21.473,221.228h-.837v-.519a.708.708,0,0,0-.708-.708H1.871a.708.708,0,0,0-.708.708v3.734c0,3.3,2.648,6.565,4.568,7.84a10.9,10.9,0,0,0,5.168,1.4,10.516,10.516,0,0,0,5.168-1.4,6.526,6.526,0,0,0,3.622-3.862h1.784a3.6,3.6,0,1,0,0-7.193Zm-2.252,3.215a8.1,8.1,0,0,1-8.321,7.84,8.1,8.1,0,0,1-8.321-7.84v-3.027H19.22v3.027Zm2.252,2.563H20.255a8.805,8.805,0,0,0,.38-2.563v-1.8h.837a2.182,2.182,0,0,1,0,4.363Z" transform="translate(-1.163 -220.002)"/></g></g><g transform="translate(4.82 0)"><g transform="translate(0 0)"><path d="M81.166,4.63a2.733,2.733,0,0,0,1.145-2.08A3.37,3.37,0,0,0,81.192.18a.708.708,0,1,0-.94,1.057A2.045,2.045,0,0,1,80.9,2.516a1.381,1.381,0,0,1-.619,1.013,2.733,2.733,0,0,0-1.145,2.08,3.37,3.37,0,0,0,1.119,2.369.708.708,0,0,0,.94-1.057,2.045,2.045,0,0,1-.645-1.278A1.381,1.381,0,0,1,81.166,4.63Z" transform="translate(-79.131 -0.001)"/></g></g></g></svg>