<svg xmlns="http://www.w3.org/2000/svg" width="25.501" height="24" viewBox="0 0 25.501 24"><g transform="translate(0 -14.128)"><path d="M10.982,31.065h-8.9a.376.376,0,0,1-.375-.375V16.211a.376.376,0,0,1,.375-.375H23.416a.376.376,0,0,1,.375.375v3.171A3.839,3.839,0,0,1,25.5,20V16.211a2.086,2.086,0,0,0-2.083-2.083H2.083A2.086,2.086,0,0,0,0,16.211V30.689a2.086,2.086,0,0,0,2.083,2.084h7.15v2.793H8.106a1.281,1.281,0,0,0,0,2.562h3.6a3.839,3.839,0,0,1-.721-2.233V31.065Z" fill="#020202"/><path d="M244.379,160.142V158.3h-3.753V146.51a.451.451,0,0,1,.45-.451h8.493a.451.451,0,0,1,.45.451v3.648h.64a2.108,2.108,0,0,1,1.068.3V146.51a2.161,2.161,0,0,0-2.159-2.159h-8.492a2.161,2.161,0,0,0-2.159,2.159V159.2a2.161,2.161,0,0,0,2.159,2.159h3.688A2.258,2.258,0,0,1,244.379,160.142Z" transform="translate(-226.228 -123.306)" fill="#020202"/><path d="M367.051,273.775h-4.143a1.071,1.071,0,0,0-1.069,1.07v7.847a1.07,1.07,0,0,0,1.069,1.069h4.143a1.07,1.07,0,0,0,1.069-1.069v-7.847A1.071,1.071,0,0,0,367.051,273.775Zm-3.931,1.281h3.719v6.783H363.12Zm1.86,8.185a.459.459,0,1,1,.3-.121A.447.447,0,0,1,364.98,283.241Z" transform="translate(-342.62 -245.856)" fill="#020202"/></g></svg>